<?xml version="1.0" encoding="utf-8"?>
<!-- Generator: Adobe Illustrator 27.1.1, SVG Export Plug-In . SVG Version: 6.00 Build 0)  -->
<svg version="1.1" id="Layer_1" xmlns="http://www.w3.org/2000/svg" xmlns:xlink="http://www.w3.org/1999/xlink" x="0px" y="0px"
	 viewBox="0 0 595.28 425.2" style="enable-background:new 0 0 595.28 425.2;" xml:space="preserve">
<style type="text/css">
	.st0{fill:#FFFFFF;}
	.st1{fill:#AE0F0A;}
	.st2{fill:#3C3C3B;}
</style>
<rect x="148.94" y="63.78" class="st0" width="297.4" height="297.64"/>
<polygon class="st1" points="268.64,219.14 268.64,146.71 291.77,146.71 291.77,152.47 276.16,152.47 276.16,213.37 291.77,213.37 
	291.77,219.14 "/>
<polygon class="st1" points="306.17,219.14 306.17,213.38 321.78,213.37 321.78,152.47 306.17,152.47 306.17,146.71 329.31,146.71 
	329.31,219.14 "/>
<path class="st1" d="M198.53,233.31c-4.11-3.12-19.39-23.63-19.39-50.33c0-26.69,15.22-47.26,19.31-50.39l0.71-0.54l4.22,2.53
	l-1.24,1.48c-0.99,1.2-2.63,3.19-5.14,7.8c-7.19,13.14-10.4,21.91-10.4,39.13c0,25.11,9.66,38.49,14.3,44.92
	c0.68,0.94,1.34,1.86,1.73,2.5l0.62,1.02l-0.96,0.71c-0.64,0.48-1.72,1.06-2.5,1.35l-0.68,0.26L198.53,233.31z"/>
<path class="st1" d="M389.96,233.49c-0.78-0.29-1.85-0.87-2.5-1.35l-0.96-0.71l0.62-1.02c0.39-0.64,1.05-1.56,1.7-2.45
	c4.68-6.48,14.34-19.86,14.34-44.97c0-17.23-3.21-25.99-10.4-39.13c-2.52-4.61-4.16-6.6-5.14-7.79l-1.25-1.49l4.22-2.53l0.71,0.54
	c4.09,3.13,19.31,23.71,19.31,50.39c0,26.69-15.29,47.21-19.39,50.33l-0.58,0.44L389.96,233.49z"/>
<path class="st1" d="M213.9,210.28c-2.8,0-5.07-2.28-5.07-5.07c0-2.8,2.28-5.07,5.07-5.07c2.84,0,5.07,2.23,5.07,5.07
	S216.74,210.28,213.9,210.28z M213.9,165.71c-2.84,0-5.07-2.23-5.07-5.07c0-2.8,2.28-5.07,5.07-5.07c2.8,0,5.07,2.28,5.07,5.07
	C218.97,163.48,216.74,165.71,213.9,165.71z"/>
<path class="st1" d="M246.21,210.28c-2.8,0-5.07-2.28-5.07-5.07c0-2.8,2.27-5.07,5.07-5.07c2.84,0,5.07,2.23,5.07,5.07
	S249.06,210.28,246.21,210.28z M246.21,165.71c-2.84,0-5.07-2.23-5.07-5.07c0-2.8,2.27-5.07,5.07-5.07s5.07,2.28,5.07,5.07
	C251.28,163.48,249.06,165.71,246.21,165.71z"/>
<path class="st1" d="M348.59,210.28c-2.8,0-5.07-2.28-5.07-5.07c0-2.8,2.27-5.07,5.07-5.07c2.84,0,5.07,2.23,5.07,5.07
	S351.44,210.28,348.59,210.28z M348.59,165.71c-2.84,0-5.07-2.23-5.07-5.07c0-2.8,2.27-5.07,5.07-5.07c2.8,0,5.07,2.28,5.07,5.07
	C353.67,163.48,351.44,165.71,348.59,165.71z"/>
<path class="st1" d="M380.91,210.28c-2.8,0-5.07-2.28-5.07-5.07c0-2.8,2.28-5.07,5.07-5.07c2.84,0,5.07,2.23,5.07,5.07
	S383.75,210.28,380.91,210.28z M380.91,165.71c-2.84,0-5.07-2.23-5.07-5.07c0-2.8,2.28-5.07,5.07-5.07c2.8,0,5.07,2.28,5.07,5.07
	C385.98,163.48,383.75,165.71,380.91,165.71z"/>
<path class="st2" d="M202.63,281.66c0,6.79-5.43,11.72-12.22,11.72c-3.93,0-7.51-1.64-9.86-4.36c-2,2.29-5,3.65-8.22,3.65v-5.5
	c3,0,5.58-2.43,5.58-5.5V237.7h5.5v18.37c2-1.79,4.5-2.57,6.93-2.57c6.72,0,12.29,4.86,12.29,11.65L202.63,281.66L202.63,281.66z
	 M197.13,281.66v-16.51c0-3.65-3.07-6.22-6.79-6.22s-6.93,2.57-6.93,6.22v16.51c0,3.72,3.29,6.22,7.01,6.22
	C194.12,287.88,197.13,285.38,197.13,281.66z"/>
<path class="st2" d="M221.29,293.39h-0.07c-7.51,0-12.44-4.86-12.44-11.65c0.14-6.15,4.86-11.01,12.44-11.01h6.86v-3.36
	c0-5.22-2.57-7.65-7.65-7.65h-6.86v-5.5h6.86c8.22,0,13.15,4.93,13.15,13.15v14.3c0,2.93,2.64,5.36,5.43,5.5v5.5
	c-2.79,0-6.15-1.07-8.15-3.79C228.86,291.17,226,293.39,221.29,293.39z M221.21,276.23c-4.36,0-6.93,2.43-6.93,5.5
	c0,3.79,2.5,6.15,6.93,6.15h0.07c3.72,0,6.79-2.43,6.79-6.22v-5.43H221.21z"/>
<path class="st2" d="M258.96,253.5c6.72,0,12.29,4.86,12.29,11.65v27.52h-5.5v-27.52c0-3.65-3.07-6.22-6.79-6.22
	s-6.93,2.57-6.93,6.22v27.52h-5.5v-27.52c0-3-2.43-5.43-5.5-5.5v-5.43c3.22,0,6.08,1.36,8.15,3.57
	C251.45,255.07,255.03,253.5,258.96,253.5z"/>
<path class="st2" d="M279.69,265.15c0-6.79,5.58-11.65,12.3-11.65c2.57,0,5.08,0.79,6.93,2.64V237.7h5.5v43.96
	c0,3.07,2.57,5.5,5.58,5.5v5.5c-3.22,0-6.22-1.36-8.22-3.65c-2.36,2.72-5.93,4.36-9.86,4.36c-6.79,0-12.22-4.93-12.22-11.72
	L279.69,265.15L279.69,265.15z M298.91,281.66v-16.51c0-3.65-3.22-6.22-6.93-6.22c-3.72,0-6.79,2.57-6.79,6.22v16.51
	c0,3.72,3,6.22,6.72,6.22S298.91,285.38,298.91,281.66z"/>
<path class="st1" d="M337.16,292.67h-7.58c-8.22,0-14.44-5.58-14.44-13.8v-12.94c0-6.79,5.01-12.44,12.51-12.44
	s12.22,5.65,12.22,12.44v10.29h-19.23v2.64c0,5.15,3.72,8.29,8.93,8.29h7.58v5.52H337.16z M320.64,265.94v4.79h13.73v-4.79
	c0-3.72-2.22-6.93-6.72-6.93S320.64,262.22,320.64,265.94z"/>
<path class="st1" d="M354.38,248.71h-5.5v-5.5h5.5V248.71z M348.88,292.67v-38.46h5.5v38.46H348.88z"/>
<path class="st1" d="M364.1,265.15c0-6.79,5.58-11.65,12.3-11.65c2.57,0,5.08,0.79,6.93,2.64V237.7h5.5v43.96
	c0,3.07,2.57,5.5,5.57,5.5v5.5c-3.22,0-6.22-1.36-8.22-3.65c-2.36,2.72-5.93,4.36-9.87,4.36c-6.79,0-12.22-4.93-12.22-11.72v-16.5
	H364.1z M383.33,281.66v-16.51c0-3.65-3.22-6.22-6.93-6.22c-3.72,0-6.79,2.57-6.79,6.22v16.51c0,3.72,3,6.22,6.72,6.22
	C380.04,287.88,383.33,285.38,383.33,281.66z"/>
<path class="st1" d="M421.57,292.67H414c-8.22,0-14.44-5.58-14.44-13.8v-12.94c0-6.79,5-12.44,12.51-12.44s12.22,5.65,12.22,12.44
	v10.29h-19.23v2.64c0,5.15,3.72,8.29,8.93,8.29h7.58L421.57,292.67L421.57,292.67z M405.06,265.94v4.79h13.72v-4.79
	c0-3.72-2.22-6.93-6.72-6.93S405.06,262.22,405.06,265.94z"/>
</svg>
