<?xml version="1.0" encoding="utf-8"?>
<!-- Generator: Adobe Illustrator 27.1.1, SVG Export Plug-In . SVG Version: 6.00 Build 0)  -->
<svg version="1.1" id="Layer_1" xmlns="http://www.w3.org/2000/svg" xmlns:xlink="http://www.w3.org/1999/xlink" x="0px" y="0px"
	 viewBox="0 0 595.28 841.89" style="enable-background:new 0 0 595.28 841.89;" xml:space="preserve">
<style type="text/css">
	.st0{fill:#AE0F0A;}
</style>
<polygon class="st0" points="271.76,457.24 271.76,384.81 294.89,384.81 294.89,390.57 279.28,390.57 279.28,451.48 294.89,451.48 
	294.89,457.24 "/>
<polygon class="st0" points="309.29,457.24 309.29,451.48 324.91,451.48 324.91,390.57 309.29,390.57 309.29,384.81 332.43,384.81 
	332.43,457.24 "/>
<path class="st0" d="M201.65,471.41c-4.11-3.12-19.39-23.63-19.39-50.33c0-26.69,15.22-47.26,19.31-50.39l0.71-0.54l4.22,2.53
	l-1.24,1.48c-0.99,1.2-2.63,3.19-5.14,7.8c-7.19,13.14-10.4,21.91-10.4,39.13c0,25.11,9.66,38.49,14.3,44.92
	c0.68,0.94,1.34,1.86,1.73,2.5l0.62,1.02l-0.96,0.71c-0.64,0.48-1.72,1.06-2.5,1.35l-0.68,0.26L201.65,471.41z"/>
<path class="st0" d="M393.09,471.6c-0.78-0.29-1.85-0.87-2.5-1.35l-0.96-0.71l0.62-1.02c0.39-0.64,1.05-1.56,1.7-2.45
	c4.68-6.48,14.34-19.86,14.34-44.97c0-17.23-3.21-25.99-10.4-39.13c-2.52-4.61-4.16-6.6-5.14-7.79l-1.25-1.49l4.22-2.53l0.71,0.54
	c4.09,3.13,19.31,23.71,19.31,50.39c0,26.69-15.29,47.21-19.39,50.33l-0.58,0.44L393.09,471.6z"/>
<path class="st0" d="M217.02,448.38c-2.8,0-5.07-2.28-5.07-5.07c0-2.8,2.28-5.07,5.07-5.07c2.84,0,5.07,2.23,5.07,5.07
	S219.86,448.38,217.02,448.38z M217.02,403.82c-2.84,0-5.07-2.23-5.07-5.07c0-2.8,2.28-5.07,5.07-5.07c2.8,0,5.07,2.28,5.07,5.07
	C222.09,401.59,219.86,403.82,217.02,403.82z"/>
<path class="st0" d="M249.33,448.38c-2.8,0-5.07-2.28-5.07-5.07c0-2.8,2.27-5.07,5.07-5.07c2.84,0,5.07,2.23,5.07,5.07
	S252.18,448.38,249.33,448.38z M249.33,403.82c-2.84,0-5.07-2.23-5.07-5.07c0-2.8,2.27-5.07,5.07-5.07s5.07,2.28,5.07,5.07
	C254.41,401.59,252.18,403.82,249.33,403.82z"/>
<path class="st0" d="M351.72,448.38c-2.8,0-5.07-2.28-5.07-5.07c0-2.8,2.27-5.07,5.07-5.07c2.84,0,5.07,2.23,5.07,5.07
	S354.56,448.38,351.72,448.38z M351.72,403.82c-2.84,0-5.07-2.23-5.07-5.07c0-2.8,2.27-5.07,5.07-5.07c2.8,0,5.07,2.28,5.07,5.07
	C356.79,401.59,354.56,403.82,351.72,403.82z"/>
<path class="st0" d="M384.03,448.38c-2.8,0-5.07-2.28-5.07-5.07c0-2.8,2.28-5.07,5.07-5.07c2.84,0,5.07,2.23,5.07,5.07
	S386.87,448.38,384.03,448.38z M384.03,403.82c-2.84,0-5.07-2.23-5.07-5.07c0-2.8,2.28-5.07,5.07-5.07c2.8,0,5.07,2.28,5.07,5.07
	C389.1,401.59,386.87,403.82,384.03,403.82z"/>
</svg>
